{
  "source": "C:\\Users\\Peter\\Desktop\\stuff\\MIUN\\quantitative_research\\video_compression\\videos\\BVI-HD\\BVI-HD_CDVL_videos\\ORIG\\CarpetCircleFast_1920x1080_60fps.mp4",
  "output": "C:\\Users\\Peter\\Desktop\\stuff\\MIUN\\quantitative_research\\video_compression\\compressed_videos\\BVI-HD\\h264\\3\\CarpetCircleFast_1920x1080_60fps_h264.mp4",
  "codec": "h264",
  "ok": "Input #0, mov,mp4,m4a,3gp,3g2,mj2, from 'C:\\Users\\Peter\\Desktop\\stuff\\MIUN\\quantitative_research\\video_compression\\videos\\BVI-HD\\BVI-HD_CDVL_videos\\ORIG\\CarpetCircleFast_1920x1080_60fps.mp4':\n  Metadata:\n    major_brand     : isom\n    minor_version   : 512\n    compatible_brands: isomiso2avc1mp41\n    encoder         : Lavf54.28.101\n  Duration: 00:00:05.00, start: 0.000000, bitrate: 324759 kb/s\n  Stream #0:0[0x1](und): Video: h264 (High 4:4:4 Predictive) (avc1 / 0x31637661), yuv420p(progressive), 1920x1080, 324754 kb/s, 60 fps, 60 tbr, 60 tbn (default)\n    Metadata:\n      handler_name    : VideoHandler\n      vendor_id       : [0][0][0][0]\n[out#0/mp4 @ 000001ea3b5f9b40] Codec AVOption b:a (set bitrate (in bits/s)) has not been used for any stream. The most likely reason is either wrong type (e.g. a video option with no video streams) or that it is a private option of some decoder which was not actually used for any stream.\nStream mapping:\n  Stream #0:0 -> #0:0 (h264 (native) -> h264 (libx264))\nPress [q] to stop, [?] for help\n[libx264 @ 000001ea3bfbd300] using cpu capabilities: MMX2 SSE2Fast SSSE3 SSE4.2 AVX FMA3 BMI2 AVX2\n[libx264 @ 000001ea3bfbd300] profile High, level 5.0, 4:2:0, 8-bit\n[libx264 @ 000001ea3bfbd300] 264 - core 165 r3222 b35605a - H.264/MPEG-4 AVC codec - Copyleft 2003-2025 - http://www.videolan.org/x264.html - options: cabac=1 ref=5 deblock=1:0:0 analyse=0x3:0x113 me=hex subme=8 psy=1 psy_rd=1.00:0.00 mixed_ref=1 me_range=16 chroma_me=1 trellis=2 8x8dct=1 cqm=0 deadzone=21,11 fast_pskip=1 chroma_qp_offset=-2 threads=18 lookahead_threads=3 sliced_threads=0 nr=0 decimate=1 interlaced=0 bluray_compat=0 constrained_intra=0 bframes=3 b_pyramid=2 b_adapt=1 b_bias=0 direct=3 weightb=1 open_gop=0 weightp=2 keyint=250 keyint_min=25 scenecut=40 intra_refresh=0 rc_lookahead=50 rc=cbr mbtree=1 bitrate=3000 ratetol=1.0 qcomp=0.60 qpmin=0 qpmax=69 qpstep=4 vbv_maxrate=3000 vbv_bufsize=3000 nal_hrd=none filler=0 ip_ratio=1.40 aq=1:1.00\nOutput #0, mp4, to 'C:\\Users\\Peter\\Desktop\\stuff\\MIUN\\quantitative_research\\video_compression\\compressed_videos\\BVI-HD\\h264\\3\\CarpetCircleFast_1920x1080_60fps_h264.mp4':\n  Metadata:\n    major_brand     : isom\n    minor_version   : 512\n    compatible_brands: isomiso2avc1mp41\n    encoder         : Lavf62.3.100\n  Stream #0:0(und): Video: h264 (avc1 / 0x31637661), yuv420p(tv, progressive), 1920x1080, q=2-31, 3000 kb/s, 60 fps, 15360 tbn (default)\n    Metadata:\n      encoder         : Lavc62.11.100 libx264\n      handler_name    : VideoHandler\n      vendor_id       : [0][0][0][0]\n    Side data:\n      cpb: bitrate max/min/avg: 3000000/0/3000000 buffer size: 3000000 vbv_delay: N/A\nframe=    0 fps=0.0 q=0.0 size=       0KiB time=N/A bitrate=N/A speed=N/A elapsed=0:00:00.51    \nframe=    0 fps=0.0 q=0.0 size=       0KiB time=N/A bitrate=N/A speed=N/A elapsed=0:00:01.08    \nframe=   30 fps= 18 q=37.0 size=       0KiB time=00:00:00.46 bitrate=   0.8kbits/s speed=0.281x elapsed=0:00:01.65    \nframe=   62 fps= 28 q=38.0 size=       0KiB time=00:00:01.00 bitrate=   0.4kbits/s speed=0.459x elapsed=0:00:02.17    \nframe=   82 fps= 30 q=39.0 size=     256KiB time=00:00:01.33 bitrate=1573.2kbits/s speed=0.491x elapsed=0:00:02.71    \nframe=  106 fps= 33 q=39.0 size=     512KiB time=00:00:01.73 bitrate=2420.0kbits/s speed=0.537x elapsed=0:00:03.22    \nframe=  138 fps= 37 q=37.0 size=     512KiB time=00:00:02.26 bitrate=1850.6kbits/s speed= 0.6x elapsed=0:00:03.77    \nframe=  164 fps= 38 q=36.0 size=     512KiB time=00:00:02.70 bitrate=1553.6kbits/s speed=0.626x elapsed=0:00:04.31    \nframe=  200 fps= 41 q=37.0 size=     768KiB time=00:00:03.30 bitrate=1906.6kbits/s speed=0.683x elapsed=0:00:04.82    \nframe=  221 fps= 41 q=39.0 size=     768KiB time=00:00:03.65 bitrate=1723.8kbits/s speed=0.68x elapsed=0:00:05.36    \nframe=  258 fps= 44 q=36.0 size=    1024KiB time=00:00:04.25 bitrate=1973.9kbits/s speed=0.723x elapsed=0:00:05.87    \n[mp4 @ 000001ea3bbd00c0] Starting second pass: moving the moov atom to the beginning of the file\n[out#0/mp4 @ 000001ea3b5f9b40] video:1274KiB audio:0KiB subtitle:0KiB other streams:0KiB global headers:0KiB muxing overhead: 0.326740%\nframe=  300 fps= 48 q=-1.0 Lsize=    1278KiB time=00:00:04.96 bitrate=2108.4kbits/s speed=0.796x elapsed=0:00:06.23    \n[libx264 @ 000001ea3bfbd300] frame I:2     Avg QP:33.05  size: 19100\n[libx264 @ 000001ea3bfbd300] frame P:91    Avg QP:33.74  size: 10288\n[libx264 @ 000001ea3bfbd300] frame B:207   Avg QP:35.39  size:  1592\n[libx264 @ 000001ea3bfbd300] consecutive B-frames:  5.0%  4.0% 15.0% 76.0%\n[libx264 @ 000001ea3bfbd300] mb I  I16..4: 59.3% 40.7%  0.0%\n[libx264 @ 000001ea3bfbd300] mb P  I16..4:  8.6%  6.4%  0.0%  P16..4: 31.0%  1.1%  1.6%  0.0%  0.0%    skip:51.3%\n[libx264 @ 000001ea3bfbd300] mb B  I16..4:  0.0%  0.0%  0.0%  B16..8: 20.6%  0.1%  0.0%  direct: 0.1%  skip:79.0%  L0:46.9% L1:52.7% BI: 0.3%\n[libx264 @ 000001ea3bfbd300] 8x8 transform intra:42.2% inter:99.3%\n[libx264 @ 000001ea3bfbd300] direct mvs  spatial:95.2% temporal:4.8%\n[libx264 @ 000001ea3bfbd300] coded y,uvDC,uvAC intra: 18.1% 28.7% 0.1% inter: 2.9% 3.8% 0.0%\n[libx264 @ 000001ea3bfbd300] i16 v,h,dc,p: 25% 26% 10% 39%\n[libx264 @ 000001ea3bfbd300] i8 v,h,dc,ddl,ddr,vr,hd,vl,hu:  7% 10% 12%  9% 13% 11% 17%  9% 12%\n[libx264 @ 000001ea3bfbd300] i4 v,h,dc,ddl,ddr,vr,hd,vl,hu:  3%  3%  3%  8% 25% 11% 31%  4% 13%\n[libx264 @ 000001ea3bfbd300] i8c dc,h,v,p: 76%  4% 14%  5%\n[libx264 @ 000001ea3bfbd300] Weighted P-Frames: Y:4.4% UV:4.4%\n[libx264 @ 000001ea3bfbd300] ref P L0: 58.7% 15.3% 15.0%  6.2%  4.6%  0.2%\n[libx264 @ 000001ea3bfbd300] ref B L0: 94.8%  3.5%  1.3%  0.5%\n[libx264 @ 000001ea3bfbd300] ref B L1: 99.0%  1.0%\n[libx264 @ 000001ea3bfbd300] kb/s:2086.32\n",
  "seconds": 6.4489665031433105,
  "probe_out": {}
}